<svg id="Kreise" xmlns="http://www.w3.org/2000/svg" viewBox="0 0 858 609"><path d="M553.87,6.93C451.93,6.93,362,58.35,308.62,136.65a196.32,196.32,0,0,0-105.08-30.3C94.61,106.35,6.3,194.65,6.3,303.58S94.61,500.81,203.54,500.81a196.32,196.32,0,0,0,104.59-30h0l0,0,.46-.28c53.4,78.3,143.31,129.72,245.25,129.72,163.83,0,296.65-132.81,296.65-296.65S717.7,6.93,553.87,6.93ZM756.56,506.27A286.47,286.47,0,0,1,417.8,555.94a289.08,289.08,0,0,1-100.89-91,197.59,197.59,0,0,0,76.94-110.81H383.44a186.09,186.09,0,0,1-17.15,41.56A188.84,188.84,0,0,1,311,456.9,284.77,284.77,0,0,1,271.1,354.11H261a295.08,295.08,0,0,0,41.69,108.33,187.23,187.23,0,1,1,.21-317.59,294.94,294.94,0,0,0-41.92,108.8h10.14A284.5,284.5,0,0,1,311,150.72,188.84,188.84,0,0,1,366.29,212a186.16,186.16,0,0,1,17.19,41.7h10.4A197.63,197.63,0,0,0,316.7,142.54l.18-.25A289,289,0,0,1,417.8,51.22a284.9,284.9,0,0,1,64.73-25.35,288,288,0,0,1,71.34-8.94A286.56,286.56,0,0,1,756.56,506.27Z"/><path d="M84.7,286.66a12,12,0,0,0-5.45-4.14,18.33,18.33,0,0,0-14,.18,17.54,17.54,0,0,0-5.79,4.11,18.32,18.32,0,0,0-3.74,6.13,21.8,21.8,0,0,0-1.31,7.63,23.5,23.5,0,0,0,1.27,7.92,18,18,0,0,0,3.63,6.17,16.31,16.31,0,0,0,5.64,4,18.43,18.43,0,0,0,7.4,1.42,16.39,16.39,0,0,0,7.55-1.68,14.72,14.72,0,0,0,5.3-4.44l7.55,5.3a24.14,24.14,0,0,1-8.59,6.84,27.29,27.29,0,0,1-11.89,2.43,30.69,30.69,0,0,1-11.39-2.06,25.72,25.72,0,0,1-14.77-14.57A29.75,29.75,0,0,1,44,300.57a28.77,28.77,0,0,1,2.21-11.48,25.47,25.47,0,0,1,6-8.7,26.83,26.83,0,0,1,9.08-5.53,32.31,32.31,0,0,1,11.36-1.95,31.13,31.13,0,0,1,5.31.49,27.12,27.12,0,0,1,5.31,1.49,26.21,26.21,0,0,1,4.78,2.51A15.48,15.48,0,0,1,91.88,281Z"/><path d="M95.47,309.09A19,19,0,0,1,97,301.35a17.9,17.9,0,0,1,4.15-5.94,18.36,18.36,0,0,1,6.2-3.81,22.21,22.21,0,0,1,15.25,0,18.36,18.36,0,0,1,6.2,3.81,17.9,17.9,0,0,1,4.15,5.94,19,19,0,0,1,1.53,7.74,19.24,19.24,0,0,1-1.53,7.77,18.34,18.34,0,0,1-4.15,6,18.94,18.94,0,0,1-6.2,3.92,21.18,21.18,0,0,1-15.25,0,18.94,18.94,0,0,1-6.2-3.92,18.34,18.34,0,0,1-4.15-6A19.24,19.24,0,0,1,95.47,309.09Zm9.12,0a14.42,14.42,0,0,0,.63,4.18,11.41,11.41,0,0,0,1.91,3.74,9.93,9.93,0,0,0,3.21,2.69,10.76,10.76,0,0,0,9.27,0,9.93,9.93,0,0,0,3.21-2.69,11.61,11.61,0,0,0,1.91-3.74,14.42,14.42,0,0,0,.63-4.18,14.07,14.07,0,0,0-.63-4.15,11.72,11.72,0,0,0-1.91-3.7,9.46,9.46,0,0,0-3.21-2.65,11.14,11.14,0,0,0-9.27,0,9.46,9.46,0,0,0-3.21,2.65,11.52,11.52,0,0,0-1.91,3.7A14.07,14.07,0,0,0,104.59,309.09Z"/><path d="M143.67,270.67h9v56.5h-9Z"/><path d="M164.08,270.67h9v56.5h-9Z"/><path d="M206.6,322.62h-.22a10,10,0,0,1-4.34,3.92,14.71,14.71,0,0,1-6.8,1.53,19.74,19.74,0,0,1-4.52-.56,13.39,13.39,0,0,1-4.33-1.87,10.73,10.73,0,0,1-3.29-3.44,9.89,9.89,0,0,1-1.31-5.26,8.91,8.91,0,0,1,2.28-6.43,14.55,14.55,0,0,1,5.87-3.66,33.14,33.14,0,0,1,8-1.69q4.36-.41,8.55-.41v-.89a5.53,5.53,0,0,0-2.43-5,10.19,10.19,0,0,0-5.79-1.61,13.06,13.06,0,0,0-5.45,1.19,14.68,14.68,0,0,0-4.34,2.92l-4.63-5.46a20.26,20.26,0,0,1,7.06-4.26,24.26,24.26,0,0,1,8.11-1.42,19.81,19.81,0,0,1,7.88,1.35,13,13,0,0,1,4.9,3.51,12.52,12.52,0,0,1,2.5,4.86,20.72,20.72,0,0,1,.71,5.38v21.82H206.6Zm-.15-11.81h-2q-2.17,0-4.56.18a19.62,19.62,0,0,0-4.41.83,9.41,9.41,0,0,0-3.37,1.79,4,4,0,0,0-1.34,3.18,3.88,3.88,0,0,0,.56,2.13,4.29,4.29,0,0,0,1.46,1.38,6.44,6.44,0,0,0,2,.75,11.44,11.44,0,0,0,2.25.22c3.08,0,5.43-.82,7-2.47a9.21,9.21,0,0,0,2.39-6.72Z"/><path d="M234.93,270.67v25.19h.22a14.31,14.31,0,0,1,1.72-1.87,12.59,12.59,0,0,1,2.51-1.79,15.55,15.55,0,0,1,7.81-1.95,16.74,16.74,0,0,1,12.55,5.46,18,18,0,0,1,3.59,6,21.11,21.11,0,0,1,1.27,7.4,22.06,22.06,0,0,1-1.23,7.43,18.22,18.22,0,0,1-3.52,6.06,16.84,16.84,0,0,1-5.53,4.11,17.06,17.06,0,0,1-7.36,1.53,16,16,0,0,1-7.14-1.64,12.2,12.2,0,0,1-5.19-4.79h-.15v5.38H226v-56.5Zm20.55,38.42a14.07,14.07,0,0,0-.63-4.15,11.72,11.72,0,0,0-1.91-3.7,9.55,9.55,0,0,0-3.21-2.65,9.7,9.7,0,0,0-4.56-1,9.21,9.21,0,0,0-4.41,1,11.37,11.37,0,0,0-3.33,2.69,11.55,11.55,0,0,0-2.09,3.74,13.08,13.08,0,0,0-.71,4.19,12.69,12.69,0,0,0,.71,4.14,11.36,11.36,0,0,0,2.09,3.7,10.82,10.82,0,0,0,3.33,2.66,10.28,10.28,0,0,0,9,0,10,10,0,0,0,3.21-2.69,11.61,11.61,0,0,0,1.91-3.74A14.42,14.42,0,0,0,255.48,309.09Z"/><path d="M271.55,309.09a19,19,0,0,1,1.53-7.74,18,18,0,0,1,4.15-5.94,18.31,18.31,0,0,1,6.21-3.81,22.18,22.18,0,0,1,15.24,0,18.36,18.36,0,0,1,6.2,3.81,17.9,17.9,0,0,1,4.15,5.94,19,19,0,0,1,1.54,7.74,19.24,19.24,0,0,1-1.54,7.77,18.34,18.34,0,0,1-4.15,6,18.94,18.94,0,0,1-6.2,3.92,21.16,21.16,0,0,1-15.24,0,18.88,18.88,0,0,1-6.21-3.92,18.49,18.49,0,0,1-4.15-6A19.24,19.24,0,0,1,271.55,309.09Zm9.12,0a14.42,14.42,0,0,0,.63,4.18,11.61,11.61,0,0,0,1.91,3.74,10,10,0,0,0,3.21,2.69,10.76,10.76,0,0,0,9.27,0,10,10,0,0,0,3.22-2.69,11.59,11.59,0,0,0,1.9-3.74,14.43,14.43,0,0,0,.64-4.18,14.08,14.08,0,0,0-.64-4.15,11.7,11.7,0,0,0-1.9-3.7,9.49,9.49,0,0,0-3.22-2.65,11.14,11.14,0,0,0-9.27,0,9.55,9.55,0,0,0-3.21,2.65,11.72,11.72,0,0,0-1.91,3.7A14.07,14.07,0,0,0,280.67,309.09Z"/><path d="M319.61,291.3h8.59v6h.15a13,13,0,0,1,4.19-5.08,10.4,10.4,0,0,1,6.28-1.95c.34,0,.72,0,1.12,0a4.29,4.29,0,0,1,1,.19v8.22a12.3,12.3,0,0,0-1.53-.3,10.43,10.43,0,0,0-1.23-.08,9.44,9.44,0,0,0-4.93,1.13,8.85,8.85,0,0,0-2.92,2.69,9.58,9.58,0,0,0-1.42,3.21,12.44,12.44,0,0,0-.37,2.62v19.2h-9Z"/><path d="M368.49,322.62h-.22a10.07,10.07,0,0,1-4.34,3.92,14.71,14.71,0,0,1-6.8,1.53,19.67,19.67,0,0,1-4.52-.56,13.44,13.44,0,0,1-4.34-1.87A10.84,10.84,0,0,1,345,322.2a9.89,9.89,0,0,1-1.3-5.26,8.91,8.91,0,0,1,2.27-6.43,14.62,14.62,0,0,1,5.87-3.66,33.25,33.25,0,0,1,8-1.69q4.38-.41,8.56-.41v-.89a5.53,5.53,0,0,0-2.43-5,10.19,10.19,0,0,0-5.79-1.61,13.1,13.1,0,0,0-5.46,1.19,14.62,14.62,0,0,0-4.33,2.92l-4.64-5.46a20.4,20.4,0,0,1,7.07-4.26,24.18,24.18,0,0,1,8.11-1.42,19.88,19.88,0,0,1,7.88,1.35,13,13,0,0,1,4.9,3.51,12.66,12.66,0,0,1,2.5,4.86,21.15,21.15,0,0,1,.71,5.38v21.82h-8.37Zm-.15-11.81h-2q-2.16,0-4.56.18a19.83,19.83,0,0,0-4.41.83,9.45,9.45,0,0,0-3.36,1.79,4,4,0,0,0-1.35,3.18,3.8,3.8,0,0,0,.57,2.13,4.26,4.26,0,0,0,1.45,1.38,6.5,6.5,0,0,0,2,.75,11.41,11.41,0,0,0,2.24.22q4.63,0,7-2.47a9.25,9.25,0,0,0,2.39-6.72Z"/><path d="M381.79,298.47V291.3h6.28V280.91h8.82V291.3h9v7.17h-9v16.67a8.18,8.18,0,0,0,.86,4c.57,1,1.86,1.57,3.85,1.57a11.48,11.48,0,0,0,1.94-.18,8.05,8.05,0,0,0,1.87-.57l.3,7a14.34,14.34,0,0,1-2.84.71,20.55,20.55,0,0,1-3.14.26,14.22,14.22,0,0,1-5.83-1,8.83,8.83,0,0,1-3.55-2.76,10.21,10.21,0,0,1-1.79-4,23,23,0,0,1-.49-4.89V298.47Z"/><path d="M411.61,279.12a5.18,5.18,0,0,1,1.61-3.78,5.52,5.52,0,0,1,4.07-1.6,5.93,5.93,0,0,1,4.15,1.53,5.25,5.25,0,0,1,0,7.7,5.93,5.93,0,0,1-4.15,1.53,5.52,5.52,0,0,1-4.07-1.61A5.17,5.17,0,0,1,411.61,279.12Zm1.27,12.18h9v35.87h-9Z"/><path d="M427.76,291.3h9.79L447,317.46h.15l9.5-26.16h9.49l-14.28,35.87h-9.56Z"/><path d="M506.08,309.68v1.2a9.66,9.66,0,0,1-.07,1.2H478.73a8.8,8.8,0,0,0,1,3.55,8.92,8.92,0,0,0,2.28,2.76,11,11,0,0,0,3.21,1.83,10.54,10.54,0,0,0,3.74.68,11.89,11.89,0,0,0,5.68-1.24,10.63,10.63,0,0,0,3.81-3.4l6,4.79q-5.31,7.17-15.4,7.17a22,22,0,0,1-7.7-1.31,18.07,18.07,0,0,1-6.09-3.7,16.62,16.62,0,0,1-4-5.86,20.29,20.29,0,0,1-1.46-7.89,20.56,20.56,0,0,1,1.46-7.88,17.53,17.53,0,0,1,10-9.94,20,20,0,0,1,7.51-1.39,18.83,18.83,0,0,1,6.92,1.24,15,15,0,0,1,5.49,3.66,17.22,17.22,0,0,1,3.63,6.05A25.07,25.07,0,0,1,506.08,309.68Zm-9-4a11.19,11.19,0,0,0-.48-3.29,7.61,7.61,0,0,0-1.53-2.76,7.47,7.47,0,0,0-2.66-1.91,9.32,9.32,0,0,0-3.77-.71,10.08,10.08,0,0,0-6.84,2.43,8.85,8.85,0,0,0-3.1,6.24Z"/><path d="M534.63,274.26h9.42v52.91h-9.42Z"/><path d="M592.11,327.17h-8.52v-5.38h-.15a12.22,12.22,0,0,1-5.2,4.79,15.91,15.91,0,0,1-7.13,1.64,17.13,17.13,0,0,1-7.37-1.53,17,17,0,0,1-5.53-4.11,18.2,18.2,0,0,1-3.51-6.06,22.06,22.06,0,0,1-1.23-7.43,21.11,21.11,0,0,1,1.27-7.4,17.84,17.84,0,0,1,3.59-6,16.74,16.74,0,0,1,12.55-5.46,15.55,15.55,0,0,1,7.81,1.95A12.89,12.89,0,0,1,581.2,294a14.17,14.17,0,0,1,1.71,1.87h.23V270.67h9Zm-29.52-18.08a14.42,14.42,0,0,0,.63,4.18,11.41,11.41,0,0,0,1.91,3.74,9.82,9.82,0,0,0,3.21,2.69,10.28,10.28,0,0,0,9,0,11.06,11.06,0,0,0,3.33-2.66,11.55,11.55,0,0,0,2.09-3.7,12.69,12.69,0,0,0,.71-4.14,13.08,13.08,0,0,0-.71-4.19,11.29,11.29,0,0,0-5.42-6.43,9.26,9.26,0,0,0-4.41-1,9.67,9.67,0,0,0-4.56,1,9.36,9.36,0,0,0-3.21,2.65,11.52,11.52,0,0,0-1.91,3.7A14.07,14.07,0,0,0,562.59,309.09Z"/><path d="M637.62,309.68v1.2a9.66,9.66,0,0,1-.07,1.2H610.27a8.8,8.8,0,0,0,1,3.55,8.92,8.92,0,0,0,2.28,2.76,11.16,11.16,0,0,0,3.21,1.83,10.54,10.54,0,0,0,3.74.68,11.89,11.89,0,0,0,5.68-1.24,10.63,10.63,0,0,0,3.81-3.4l6,4.79q-5.31,7.17-15.4,7.17a22,22,0,0,1-7.7-1.31,18.07,18.07,0,0,1-6.09-3.7,16.62,16.62,0,0,1-4-5.86,20.29,20.29,0,0,1-1.46-7.89,20.56,20.56,0,0,1,1.46-7.88,17.53,17.53,0,0,1,10-9.94,20,20,0,0,1,7.51-1.39,18.79,18.79,0,0,1,6.92,1.24,15,15,0,0,1,5.49,3.66,17.22,17.22,0,0,1,3.63,6.05A25.07,25.07,0,0,1,637.62,309.68Zm-9-4a11.19,11.19,0,0,0-.48-3.29,7.61,7.61,0,0,0-1.53-2.76,7.47,7.47,0,0,0-2.66-1.91,9.32,9.32,0,0,0-3.77-.71,10.08,10.08,0,0,0-6.84,2.43,8.85,8.85,0,0,0-3.1,6.24Z"/><path d="M668.49,322.62h-.22a10.07,10.07,0,0,1-4.34,3.92,14.71,14.71,0,0,1-6.8,1.53,19.67,19.67,0,0,1-4.52-.56,13.44,13.44,0,0,1-4.34-1.87A10.81,10.81,0,0,1,645,322.2a9.8,9.8,0,0,1-1.31-5.26,8.91,8.91,0,0,1,2.28-6.43,14.58,14.58,0,0,1,5.86-3.66,33.35,33.35,0,0,1,8-1.69q4.38-.41,8.56-.41v-.89a5.53,5.53,0,0,0-2.43-5,10.19,10.19,0,0,0-5.79-1.61,13.13,13.13,0,0,0-5.46,1.19,14.62,14.62,0,0,0-4.33,2.92l-4.64-5.46a20.4,20.4,0,0,1,7.07-4.26,24.22,24.22,0,0,1,8.11-1.42,19.84,19.84,0,0,1,7.88,1.35,13,13,0,0,1,4.9,3.51,12.66,12.66,0,0,1,2.5,4.86,21.15,21.15,0,0,1,.71,5.38v21.82h-8.37Zm-.15-11.81h-2q-2.16,0-4.56.18a19.83,19.83,0,0,0-4.41.83,9.45,9.45,0,0,0-3.36,1.79,4,4,0,0,0-1.34,3.18,3.8,3.8,0,0,0,.56,2.13,4.35,4.35,0,0,0,1.45,1.38,6.5,6.5,0,0,0,2,.75,11.41,11.41,0,0,0,2.24.22q4.64,0,7-2.47a9.25,9.25,0,0,0,2.39-6.72Z"/><path d="M681.79,298.47V291.3h6.28V280.91h8.82V291.3h9v7.17h-9v16.67a8.18,8.18,0,0,0,.86,4c.57,1,1.86,1.57,3.85,1.57a11.39,11.39,0,0,0,1.94-.18,8.05,8.05,0,0,0,1.87-.57l.3,7a14.34,14.34,0,0,1-2.84.71,20.55,20.55,0,0,1-3.14.26,14.22,14.22,0,0,1-5.83-1,8.83,8.83,0,0,1-3.55-2.76,10.21,10.21,0,0,1-1.79-4,23,23,0,0,1-.49-4.89V298.47Z"/><path d="M711.62,279.12a5.17,5.17,0,0,1,1.6-3.78,5.52,5.52,0,0,1,4.08-1.6,5.92,5.92,0,0,1,4.14,1.53,5.23,5.23,0,0,1,0,7.7,5.92,5.92,0,0,1-4.14,1.53,5.53,5.53,0,0,1-4.08-1.61A5.16,5.16,0,0,1,711.62,279.12Zm1.27,12.18h9v35.87h-9Z"/><path d="M731.05,309.09a19,19,0,0,1,1.53-7.74,17.9,17.9,0,0,1,4.15-5.94,18.36,18.36,0,0,1,6.2-3.81,22.21,22.21,0,0,1,15.25,0,18.36,18.36,0,0,1,6.2,3.81,17.9,17.9,0,0,1,4.15,5.94,19,19,0,0,1,1.53,7.74,19.24,19.24,0,0,1-1.53,7.77,18.34,18.34,0,0,1-4.15,6,18.94,18.94,0,0,1-6.2,3.92,21.18,21.18,0,0,1-15.25,0,18.94,18.94,0,0,1-6.2-3.92,18.34,18.34,0,0,1-4.15-6A19.24,19.24,0,0,1,731.05,309.09Zm9.12,0a14.42,14.42,0,0,0,.63,4.18,11.41,11.41,0,0,0,1.91,3.74,9.82,9.82,0,0,0,3.21,2.69,10.76,10.76,0,0,0,9.27,0A9.93,9.93,0,0,0,758.4,317a11.61,11.61,0,0,0,1.91-3.74,14.42,14.42,0,0,0,.63-4.18,14.07,14.07,0,0,0-.63-4.15,11.72,11.72,0,0,0-1.91-3.7,9.46,9.46,0,0,0-3.21-2.65,11.14,11.14,0,0,0-9.27,0,9.36,9.36,0,0,0-3.21,2.65,11.52,11.52,0,0,0-1.91,3.7A14.07,14.07,0,0,0,740.17,309.09Z"/><path d="M779.1,291.3h8.52v5.75h.15a11.62,11.62,0,0,1,4.15-4.74,11.94,11.94,0,0,1,7-2.06,13.41,13.41,0,0,1,6,1.24,11.94,11.94,0,0,1,4.11,3.25,13.16,13.16,0,0,1,2.35,4.63,19.47,19.47,0,0,1,.75,5.38v22.42h-9V307.29a25.55,25.55,0,0,0-.23-3.29,8.73,8.73,0,0,0-1-3.1,6.4,6.4,0,0,0-2.05-2.28,6.1,6.1,0,0,0-3.48-.89,7.56,7.56,0,0,0-3.73.86,7.79,7.79,0,0,0-2.58,2.2,9.68,9.68,0,0,0-1.54,3.1,12.71,12.71,0,0,0-.52,3.55v19.73h-9Z"/></svg>